<svg width="24" height="24" viewBox="0 0 24 24" fill="none" xmlns="http://www.w3.org/2000/svg">
<g clip-path="url(#clip0_805_300)">
<path d="M21 8.00009C20.5 8.00009 21.0352 8.00011 20.5 8.0001C20 8.00009 19.7256 8.00566 19.38 8.0001H7.13L6 3.7401C5.9414 3.52194 5.81066 3.33004 5.62908 3.19567C5.44749 3.0613 5.22576 2.99236 5 3.0001H3C2.73478 3.0001 2.48043 3.10545 2.29289 3.29299C2.10536 3.48053 2 3.73488 2 4.0001C2 4.26531 2.10536 4.51967 2.29289 4.7072C2.48043 4.89474 2.73478 5.0001 3 5.0001H4.24L7 15.2601C7.0586 15.4783 7.18934 15.6702 7.37092 15.8045C7.55251 15.9389 7.77424 16.0078 8 16.0001H17C17.1847 15.9995 17.3656 15.9479 17.5227 15.8508C17.6798 15.7537 17.8069 15.615 17.89 15.4501L21.17 8.8901C21.3122 8.59211 21.5157 8.32988 21.5 8.00009C21.1374 8.0664 21.5 8.00009 21 8.00009ZM16.38 14.0001H8.76L7.13 8.0001H19.38L16.38 14.0001Z" fill="white"/>
<path d="M7.5 21C8.32843 21 9 20.3284 9 19.5C9 18.6716 8.32843 18 7.5 18C6.67157 18 6 18.6716 6 19.5C6 20.3284 6.67157 21 7.5 21Z" fill="white"/>
<path d="M17.5 21C18.3284 21 19 20.3284 19 19.5C19 18.6716 18.3284 18 17.5 18C16.6716 18 16 18.6716 16 19.5C16 20.3284 16.6716 21 17.5 21Z" fill="white"/>
<path d="M9.868 10V8.74C11.156 7.43333 12.1033 6.43 12.71 5.73C13.3167 5.03 13.7367 4.46533 13.97 4.036C14.2033 3.60667 14.32 3.21 14.32 2.846C14.32 2.41667 14.194 2.08533 13.942 1.852C13.69 1.60933 13.3353 1.488 12.878 1.488C12.4767 1.488 12.038 1.58133 11.562 1.768C11.0953 1.94533 10.6193 2.202 10.134 2.538V1.166C11.03 0.437999 12.0193 0.0739993 13.102 0.0739993C13.69 0.0739993 14.2033 0.181333 14.642 0.395999C15.0807 0.601333 15.4213 0.899999 15.664 1.292C15.916 1.684 16.042 2.15067 16.042 2.692C16.042 3.21467 15.902 3.74667 15.622 4.288C15.3513 4.82 14.908 5.43133 14.292 6.122C13.6853 6.80333 12.8453 7.65267 11.772 8.67H16.476V10H9.868Z" fill="#FF9900"/>
</g>
<defs>
<clipPath id="clip0_805_300">
<rect width="24" height="24" fill="white"/>
</clipPath>
</defs>
</svg>
